<?xml version="1.0" encoding="utf-8"?>
<!-- Generator: Adobe Illustrator 24.3.0, SVG Export Plug-In . SVG Version: 6.00 Build 0)  -->
<svg version="1.1" id="Слой_1" xmlns="http://www.w3.org/2000/svg" xmlns:xlink="http://www.w3.org/1999/xlink" x="0px" y="0px"
	 viewBox="0 0 477 66" style="enable-background:new 0 0 477 66;" xml:space="preserve">
<style type="text/css">
	.st0{fill:#0271FF;}
</style>
<g>
	<path class="st0" d="M48.9,0H16.5C15.9,9.8,8.9,16.4,0,18.8c2.5,21.3,14.1,38.3,34.1,46.9c17-7.4,29.6-21.2,33.3-38.6
		C70.6,12.4,64.7-0.1,48.9,0z M65,26.6c-3.7,16.9-15.4,29.5-30.9,36.5C16.5,55.3,5.5,40.1,2.6,20.5c8.3-2.8,14.6-9.2,16-18.1h30.3
		C63.2,2.3,67.9,13.5,65,26.6z"/>
	<path class="st0" d="M54.1,22.1h-16l0.6,3.1l15.4-1.5c0.2,0,0.3-0.1,0.4-0.2c0.1-0.1,0.2-0.3,0.2-0.6c0-0.2-0.1-0.4-0.2-0.6
		C54.4,22.2,54.2,22.1,54.1,22.1z"/>
	<path class="st0" d="M22.5,28.8c-0.1,0.2-0.1,0.5-0.1,0.7c0,0.2,0.1,0.5,0.3,0.7c0.2,0.2,0.4,0.3,0.6,0.4c0.2,0.1,0.5,0.1,0.7,0.1
		c1.4-0.3,3.8-3.4,4.8-4.6l0.4-0.6l3.5-0.3l0.7-2.9h-2.2l6.6-10.1l4.2-1.5c0.5-0.2,0.4-0.6,0.1-0.6h-4l-0.4-4.4c0-0.1,0-0.1-0.1-0.1
		c0,0-0.1-0.1-0.2-0.1c-0.1,0-0.1,0-0.2,0.1c0,0-0.1,0.1-0.1,0.1L36,10.1h-4.1c-0.4,0-0.4,0.4,0,0.6l3.8,1.5l-8.9,10.1H8
		c-0.2,0-0.3,0.1-0.5,0.2c-0.1,0.1-0.2,0.3-0.2,0.5c0,0.2,0.1,0.3,0.2,0.5c0.1,0.1,0.3,0.2,0.5,0.2l16.3,2.1
		C23.6,26.7,23,27.7,22.5,28.8z"/>
	<path class="st0" d="M49.7,36.4c1,0,1.3,0.5,1.3,1.1v0.2l-4,4.9v-4.4c0-1.2,0.1-1.7,1.3-1.7v-1.2h-5v1.2c1.2,0,1.3,0.4,1.3,1.7v5.7
		c0,1-0.1,1.2-0.2,1.4c-0.6,0.6-2.1,0.4-2.6-0.1c-0.5-0.5-0.8-1-1.3-3.2l-4.8-20.3l-5.3,20.7c-0.2,0.9-0.5,1.7-0.9,2.5
		c-0.4,0.8-1.8,0.9-2.6,0.6c-0.3-0.1-0.4-0.5-0.4-1.5v-5.7c0-1.2,0-1.7,1.3-1.7v-1.2h-3.9l-2.2,5.8l-2.2-5.8h-4v1.2
		c1.3,0,1.3,0.7,1.3,1.7v5.5c0,1.1-0.1,1.9-1.4,1.9v1.2h3.8v-1.2c-1.2,0-1.3-0.5-1.3-1.6v-5.6l3.2,8l3.1-7.7v5.2
		c0,1.3-0.1,1.7-1.4,1.7v1.2h10.3v-1.2c-1.6,0-1.8-0.5-1.3-2l0.6-2.3h4.4c0.3,1.1,0.5,2.3,0.6,3.4c0,0.9-0.6,0.9-1.5,0.9v1.2h12.4
		v-1.2c-0.9,0-1.3-0.3-1.3-1v-0.2l4-4.9v4.4c0,1.3-0.1,1.7-1.3,1.7v1.2h5v-1.2c-1.2,0-1.3-0.4-1.3-1.7v-5.7c0-1.2,0-1.7,1.3-1.7
		v-1.2h-5V36.4z M32.7,39.9l2-8.5l1.7,8.5H32.7z"/>
	<path class="st0" d="M152.9,26.7c0.5-0.9,0.8-2,0.8-3.1c0-1.1-0.3-2.2-0.8-3.1c-0.5-0.9-1.3-1.7-2.2-2.2c-0.9-0.5-1.9-0.8-3.1-0.8
		c-1.1,0-2.1,0.3-3.1,0.8c-0.9,0.5-1.7,1.3-2.2,2.2c-0.5,0.9-0.8,2-0.8,3.1c0,1.1,0.3,2.2,0.8,3.1c0.5,0.9,1.3,1.7,2.2,2.2
		c0.9,0.5,1.9,0.8,3.1,0.8c1.1,0,2.1-0.3,3.1-0.8C151.6,28.4,152.4,27.6,152.9,26.7z M149.4,26.7c-0.5,0.3-1.1,0.5-1.7,0.5
		c-0.6,0-1.2-0.2-1.7-0.5c-0.5-0.3-0.9-0.8-1.2-1.3c-0.3-0.5-0.4-1.2-0.4-1.8c0-0.7,0.1-1.3,0.4-1.8c0.3-0.5,0.7-1,1.2-1.3
		c0.5-0.3,1.1-0.5,1.7-0.5c0.6,0,1.2,0.2,1.7,0.5c0.5,0.3,0.9,0.7,1.2,1.3c0.3,0.5,0.5,1.1,0.5,1.8c0,0.7-0.2,1.3-0.5,1.8
		C150.3,25.9,149.9,26.4,149.4,26.7z"/>
	<polygon class="st0" points="417,20.2 420.9,20.2 420.9,29.5 423.5,29.5 423.5,20.2 427.4,20.2 427.4,17.7 417,17.7 	"/>
	<path class="st0" d="M208.7,15.9c0.6,0.3,1.2,0.4,1.8,0.4s1.3-0.1,1.8-0.4c0.6-0.3,1-0.7,1.3-1.3c0.3-0.5,0.5-1.2,0.5-1.9h-2.1
		c0,0.5-0.1,0.9-0.4,1.2c-0.3,0.3-0.6,0.5-1.1,0.5c-0.4,0-0.8-0.2-1.1-0.5c-0.3-0.3-0.4-0.7-0.4-1.2H207c0,0.7,0.2,1.4,0.5,1.9
		C207.7,15.2,208.2,15.6,208.7,15.9z"/>
	<polygon class="st0" points="136.2,23.1 141.2,17.7 138,17.7 133.6,22.5 133.6,17.7 131,17.7 131,29.5 133.6,29.5 133.6,24 
		138.2,29.5 141.4,29.5 	"/>
	<polygon class="st0" points="319.3,24.7 324.6,24.7 324.6,29.5 327.2,29.5 327.2,17.7 324.6,17.7 324.6,22.2 319.3,22.2 
		319.3,17.7 316.6,17.7 316.6,29.5 319.3,29.5 	"/>
	<path class="st0" d="M352,28.4c0.8-0.7,1.3-1.7,1.3-3c0-1.3-0.4-2.3-1.3-3c-0.8-0.7-1.9-1-3.2-1h-2.5v-3.7h-2.6v11.8h5.1
		C350.1,29.5,351.2,29.1,352,28.4z M346.3,27.1v-3.4h2.2c0.6,0,1.1,0.2,1.5,0.5c0.4,0.3,0.5,0.7,0.5,1.2s-0.2,0.9-0.5,1.3
		c-0.3,0.3-0.9,0.5-1.5,0.5H346.3z"/>
	<polygon class="st0" points="465.7,17.7 465.7,20.2 469.6,20.2 469.6,29.5 472.2,29.5 472.2,20.2 476.1,20.2 476.1,17.7 	"/>
	<polygon class="st0" points="395.7,24.7 401,24.7 401,29.5 403.6,29.5 403.6,17.7 401,17.7 401,22.2 395.7,22.2 395.7,17.7 
		393,17.7 393,29.5 395.7,29.5 	"/>
	<polygon class="st0" points="455.6,34.4 458.4,34.4 465.1,17.7 462.2,17.7 459.1,25.9 455.9,17.7 453,17.7 457.7,29.3 	"/>
	<polygon class="st0" points="437.4,21.7 437.4,29.5 440.1,29.5 440.1,17.7 437.5,17.7 432,25.4 432,17.7 429.3,17.7 429.3,29.5 
		431.9,29.5 	"/>
	<path class="st0" d="M363.9,15.9c0.6,0.3,1.2,0.4,1.8,0.4s1.3-0.1,1.8-0.4c0.6-0.3,1-0.7,1.3-1.3c0.3-0.5,0.5-1.2,0.5-1.9h-2.1
		c0,0.5-0.1,0.9-0.4,1.2c-0.3,0.3-0.6,0.5-1.1,0.5c-0.4,0-0.8-0.2-1.1-0.5c-0.3-0.3-0.4-0.7-0.4-1.2h-2.1c0,0.7,0.2,1.4,0.5,1.9
		C362.9,15.2,363.4,15.6,363.9,15.9z"/>
	<path class="st0" d="M114.1,28.9c0.9-0.5,1.7-1.3,2.2-2.2c0.5-0.9,0.8-2,0.8-3.1c0-1.1-0.3-2.2-0.8-3.1c-0.5-0.9-1.3-1.7-2.2-2.2
		c-0.9-0.5-1.9-0.8-3.1-0.8c-1.1,0-2.1,0.3-3.1,0.8c-0.9,0.5-1.7,1.3-2.2,2.2c-0.5,0.9-0.8,2-0.8,3.1c0,1.1,0.3,2.2,0.8,3.1
		c0.5,0.9,1.3,1.7,2.2,2.2c0.9,0.5,1.9,0.8,3.1,0.8C112.1,29.7,113.2,29.4,114.1,28.9z M108.1,25.4c-0.3-0.5-0.4-1.2-0.4-1.8
		c0-0.7,0.1-1.3,0.4-1.8c0.3-0.5,0.7-1,1.2-1.3c0.5-0.3,1.1-0.5,1.7-0.5c0.6,0,1.2,0.2,1.7,0.5c0.5,0.3,0.9,0.7,1.2,1.3
		c0.3,0.5,0.5,1.1,0.5,1.8c0,0.7-0.2,1.3-0.5,1.8c-0.3,0.5-0.7,1-1.2,1.3c-0.5,0.3-1.1,0.5-1.7,0.5c-0.6,0-1.2-0.2-1.7-0.5
		C108.8,26.4,108.4,25.9,108.1,25.4z"/>
	<polygon class="st0" points="297.5,21.7 297.5,29.5 300.1,29.5 300.1,17.7 297.5,17.7 292,25.4 292,17.7 289.4,17.7 289.4,29.5 
		291.9,29.5 	"/>
	<path class="st0" d="M127.6,26.3c-0.6,0.5-1.4,0.8-2.4,0.8c-0.6,0-1.2-0.1-1.8-0.4c-0.6-0.3-1-0.7-1.4-1.2
		c-0.3-0.5-0.5-1.2-0.5-1.9c0-0.7,0.2-1.3,0.5-1.8c0.3-0.5,0.7-1,1.3-1.3c0.5-0.3,1.1-0.5,1.8-0.5c0.6,0,1.1,0.1,1.5,0.3
		c0.5,0.2,0.8,0.5,1.1,0.8l1.4-2c-0.4-0.5-0.9-0.9-1.6-1.2c-0.7-0.3-1.5-0.5-2.4-0.5c-1,0-2,0.2-3,0.8c-1,0.5-1.7,1.2-2.3,2.1
		s-0.9,2-0.9,3.2c0,1.3,0.3,2.4,0.9,3.3c0.6,0.9,1.4,1.6,2.3,2.1c1,0.5,2,0.7,3,0.7c0.8,0,1.6-0.1,2.2-0.4c0.7-0.3,1.2-0.6,1.6-1.1
		L127.6,26.3z"/>
	<polygon class="st0" points="448.5,29.5 448.5,20.2 452.4,20.2 452.4,17.7 442,17.7 442,20.2 445.9,20.2 445.9,29.5 	"/>
	<polygon class="st0" points="257.1,21.7 257.1,29.5 259.7,29.5 259.7,17.7 257.2,17.7 251.6,25.4 251.6,17.7 249,17.7 249,29.5 
		251.5,29.5 	"/>
	<polygon class="st0" points="88.1,17.1 92.9,29.5 94.9,29.5 99.7,16.9 99.7,29.5 102.3,29.5 102.3,13.7 98.4,13.7 93.9,25.4 
		89.4,13.7 85.4,13.7 85.4,29.5 88.1,29.5 	"/>
	<polygon class="st0" points="182.3,24 186.8,29.5 190.1,29.5 184.9,23.1 189.9,17.7 186.7,17.7 182.3,22.5 182.3,17.7 179.6,17.7 
		179.6,29.5 182.3,29.5 	"/>
	<path class="st0" d="M313.6,26.7c0.5-0.9,0.8-2,0.8-3.1c0-1.1-0.3-2.2-0.8-3.1c-0.5-0.9-1.3-1.7-2.2-2.2c-0.9-0.5-1.9-0.8-3.1-0.8
		c-1.1,0-2.1,0.3-3.1,0.8c-0.9,0.5-1.7,1.3-2.2,2.2c-0.5,0.9-0.8,2-0.8,3.1c0,1.1,0.3,2.2,0.8,3.1c0.5,0.9,1.3,1.7,2.2,2.2
		c0.9,0.5,1.9,0.8,3.1,0.8c1.1,0,2.1-0.3,3.1-0.8C312.4,28.4,313.1,27.6,313.6,26.7z M311.3,25.4c-0.3,0.5-0.7,1-1.2,1.3
		c-0.5,0.3-1.1,0.5-1.7,0.5c-0.6,0-1.2-0.2-1.7-0.5c-0.5-0.3-0.9-0.8-1.2-1.3c-0.3-0.5-0.4-1.2-0.4-1.8c0-0.7,0.1-1.3,0.4-1.8
		c0.3-0.5,0.7-1,1.2-1.3c0.5-0.3,1.1-0.5,1.7-0.5c0.6,0,1.2,0.2,1.7,0.5c0.5,0.3,0.9,0.7,1.2,1.3c0.3,0.5,0.5,1.1,0.5,1.8
		C311.7,24.2,311.6,24.9,311.3,25.4z"/>
	<polygon class="st0" points="213.3,29.5 216,29.5 216,17.7 213.4,17.7 207.9,25.4 207.9,17.7 205.2,17.7 205.2,29.5 207.8,29.5 
		213.3,21.7 	"/>
	<path class="st0" d="M412.1,29.7c0.8,0,1.6-0.1,2.3-0.4c0.7-0.3,1.2-0.6,1.6-1.1l-1.3-1.9c-0.6,0.5-1.4,0.8-2.4,0.8
		c-0.6,0-1.2-0.1-1.8-0.4c-0.6-0.3-1-0.7-1.4-1.2c-0.3-0.5-0.5-1.2-0.5-1.9c0-0.7,0.2-1.3,0.5-1.8c0.3-0.5,0.7-1,1.3-1.3
		c0.5-0.3,1.1-0.5,1.8-0.5c0.6,0,1.1,0.1,1.5,0.3c0.5,0.2,0.8,0.5,1.1,0.8l1.4-2c-0.4-0.5-0.9-0.9-1.6-1.2c-0.7-0.3-1.5-0.5-2.4-0.5
		c-1,0-2,0.2-3,0.8c-1,0.5-1.7,1.2-2.3,2.1s-0.9,2-0.9,3.2c0,1.3,0.3,2.4,0.9,3.3c0.6,0.9,1.4,1.6,2.3,2.1
		C410,29.5,411.1,29.7,412.1,29.7z"/>
	<polygon class="st0" points="199.7,29.5 202.3,29.5 202.3,17.7 199.8,17.7 194.2,25.4 194.2,17.7 191.6,17.7 191.6,29.5 
		194.1,29.5 199.7,21.7 	"/>
	<path class="st0" d="M269.4,28.4c0.3-0.4,0.4-0.7,0.5-1.1v2.2h2.6v-7.2c0-1.5-0.4-2.7-1.3-3.5c-0.9-0.9-2.2-1.3-4-1.3
		c-0.9,0-1.8,0.1-2.6,0.4c-0.8,0.2-1.6,0.6-2.2,1l1,2.2c0.5-0.3,1.1-0.6,1.7-0.8c0.6-0.2,1.2-0.3,1.9-0.3c0.5,0,1,0.1,1.4,0.3
		c0.4,0.2,0.8,0.5,1,0.8c0.3,0.4,0.4,0.8,0.4,1.3v0.6c-0.3-0.1-0.6-0.2-0.9-0.3c-0.6-0.2-1.4-0.3-2.2-0.3c-0.9,0-1.7,0.1-2.4,0.4
		c-0.7,0.3-1.3,0.7-1.8,1.3c-0.4,0.5-0.7,1.2-0.7,2c0,0.8,0.2,1.4,0.6,2c0.4,0.6,0.9,1,1.6,1.3c0.7,0.3,1.4,0.4,2.1,0.4
		c0.7,0,1.3-0.1,1.9-0.4C268.6,29.1,269,28.7,269.4,28.4z M265.6,27.3c-0.3-0.1-0.6-0.3-0.8-0.5c-0.2-0.2-0.3-0.5-0.3-0.8
		c0-0.5,0.2-0.8,0.7-1.1c0.5-0.3,1-0.4,1.7-0.4c0.7,0,1.4,0.1,2,0.3c0.3,0.1,0.6,0.2,1,0.4v0.2c0,0.4-0.2,0.8-0.5,1.1
		c-0.3,0.3-0.7,0.6-1.2,0.8c-0.5,0.2-1,0.3-1.5,0.3C266.3,27.4,266,27.4,265.6,27.3z"/>
	<path class="st0" d="M244.6,23.2c0.5-0.2,0.9-0.5,1.2-0.9c0.3-0.4,0.5-1,0.5-1.6c0-1-0.3-1.7-1-2.2c-0.7-0.5-1.6-0.8-2.9-0.8h-5.6
		v11.8h5.8c1.3,0,2.3-0.3,3-0.9c0.7-0.6,1.1-1.5,1.1-2.5c0-0.8-0.2-1.4-0.7-1.8C245.7,23.7,245.2,23.4,244.6,23.2z M239.4,19.9h2.6
		c0.5,0,0.9,0.1,1.2,0.3c0.3,0.2,0.4,0.5,0.4,0.9c0,0.4-0.1,0.7-0.4,1c-0.3,0.2-0.7,0.3-1.2,0.3h-2.6V19.9z M243.7,26.9
		c-0.3,0.2-0.7,0.4-1.3,0.4h-3v-2.8h3c0.6,0,1,0.1,1.3,0.4c0.3,0.2,0.5,0.6,0.5,1C244.1,26.3,244,26.6,243.7,26.9z"/>
	<polygon class="st0" points="340.7,29.5 340.7,17.7 338.1,17.7 338.1,22.2 332.8,22.2 332.8,17.7 330.2,17.7 330.2,29.5 
		332.8,29.5 332.8,24.7 338.1,24.7 338.1,29.5 	"/>
	<rect x="354.9" y="17.7" class="st0" width="2.6" height="11.8"/>
	<polygon class="st0" points="371.2,29.5 371.2,17.7 368.6,17.7 363.1,25.4 363.1,17.7 360.4,17.7 360.4,29.5 363,29.5 368.5,21.7 
		368.5,29.5 	"/>
	<polygon class="st0" points="390.1,29.5 390.1,17.7 387.6,17.7 382,25.4 382,17.7 379.4,17.7 379.4,29.5 381.9,29.5 387.5,21.7 
		387.5,29.5 	"/>
	<path class="st0" d="M231.4,27.3v2.2h2.6v-7.2c0-1.5-0.4-2.7-1.3-3.5c-0.9-0.9-2.2-1.3-4-1.3c-0.9,0-1.8,0.1-2.6,0.4
		c-0.8,0.2-1.6,0.6-2.2,1l1,2.2c0.5-0.3,1.1-0.6,1.7-0.8c0.6-0.2,1.2-0.3,1.9-0.3c0.5,0,1,0.1,1.4,0.3c0.4,0.2,0.8,0.5,1,0.8
		c0.3,0.4,0.4,0.8,0.4,1.3v0.6c-0.3-0.1-0.6-0.2-0.9-0.3c-0.6-0.2-1.4-0.3-2.2-0.3c-0.9,0-1.7,0.1-2.4,0.4c-0.7,0.3-1.3,0.7-1.8,1.3
		c-0.4,0.5-0.7,1.2-0.7,2c0,0.8,0.2,1.4,0.6,2c0.4,0.6,0.9,1,1.6,1.3c0.7,0.3,1.4,0.4,2.1,0.4c0.7,0,1.3-0.1,1.9-0.4
		c0.6-0.3,1-0.6,1.3-1C231.1,28,231.3,27.6,231.4,27.3z M228.3,27.4c-0.4,0-0.8-0.1-1.2-0.2c-0.3-0.1-0.6-0.3-0.8-0.5
		c-0.2-0.2-0.3-0.5-0.3-0.8c0-0.5,0.2-0.8,0.7-1.1c0.5-0.3,1-0.4,1.7-0.4c0.7,0,1.4,0.1,2,0.3c0.3,0.1,0.6,0.2,1,0.4v0.2
		c0,0.4-0.2,0.8-0.5,1.1c-0.3,0.3-0.7,0.6-1.2,0.8C229.2,27.3,228.7,27.4,228.3,27.4z"/>
	<path class="st0" d="M163.7,23.2c0.5-0.2,0.9-0.5,1.2-0.9c0.3-0.4,0.5-1,0.5-1.6c0-1-0.3-1.7-1-2.2c-0.7-0.5-1.6-0.8-2.9-0.8h-5.6
		v11.8h5.8c1.3,0,2.3-0.3,3-0.9c0.7-0.6,1.1-1.5,1.1-2.5c0-0.8-0.2-1.4-0.7-1.8C164.8,23.7,164.3,23.4,163.7,23.2z M158.5,19.9h2.6
		c0.5,0,0.9,0.1,1.2,0.3c0.3,0.2,0.4,0.5,0.4,0.9c0,0.4-0.1,0.7-0.4,1c-0.3,0.2-0.7,0.3-1.2,0.3h-2.6V19.9z M162.8,26.9
		c-0.3,0.2-0.7,0.4-1.3,0.4h-3v-2.8h3c0.6,0,1,0.1,1.3,0.4c0.3,0.2,0.5,0.6,0.5,1C163.2,26.3,163.1,26.6,162.8,26.9z"/>
	<polygon class="st0" points="287.4,32.4 287.4,27 285.8,27 285.8,17.7 283.2,17.7 283.2,27 277.9,27 277.9,17.7 275.3,17.7 
		275.3,29.5 284.9,29.5 284.9,32.4 	"/>
	<path class="st0" d="M176.3,26.3c-0.6,0.5-1.4,0.8-2.4,0.8c-0.6,0-1.2-0.1-1.8-0.4c-0.6-0.3-1-0.7-1.4-1.2
		c-0.3-0.5-0.5-1.2-0.5-1.9c0-0.7,0.2-1.3,0.5-1.8c0.3-0.5,0.7-1,1.3-1.3c0.5-0.3,1.1-0.5,1.8-0.5c0.6,0,1.1,0.1,1.5,0.3
		c0.5,0.2,0.8,0.5,1.1,0.8l1.4-2c-0.4-0.5-0.9-0.9-1.6-1.2c-0.7-0.3-1.5-0.5-2.4-0.5c-1,0-2,0.2-3,0.8c-1,0.5-1.7,1.2-2.3,2.1
		s-0.9,2-0.9,3.2c0,1.3,0.3,2.4,0.9,3.3c0.6,0.9,1.4,1.6,2.3,2.1c1,0.5,2,0.7,3,0.7c0.8,0,1.6-0.1,2.2-0.4c0.7-0.3,1.2-0.6,1.6-1.1
		L176.3,26.3z"/>
	<polygon class="st0" points="341.8,48.2 346,44.2 346.2,44.1 346,44.1 344.5,44.1 344.5,44.1 344.5,44.1 340.5,47.8 340.5,44.2 
		340.5,44.1 340.4,44.1 339.3,44.1 339.2,44.1 339.2,44.2 339.2,52.8 339.2,52.9 339.3,52.9 340.4,52.9 340.5,52.9 340.5,52.8 
		340.5,48.7 344.7,52.9 344.7,52.9 344.8,52.9 346.2,52.9 346.4,52.9 346.3,52.8 	"/>
	<path class="st0" d="M273.6,44.6L273.6,44.6C273.5,44.6,273.5,44.6,273.6,44.6L273.6,44.6L273.6,44.6L273.6,44.6L273.6,44.6
		c-0.7-0.4-1.4-0.6-2.2-0.6c-0.8,0-1.5,0.2-2.2,0.6c-0.7,0.4-1.2,0.9-1.6,1.6v0l0,0l0,0l-0.1,0c-0.4,0.7-0.6,1.5-0.6,2.3
		c0,0.9,0.2,1.6,0.6,2.3l0.1,0c0,0,0,0,0,0l-0.1,0l0,0l0.1,0l0,0l-0.1,0c0.4,0.7,0.9,1.2,1.6,1.6c0.7,0.4,1.4,0.6,2.2,0.6
		c0.8,0,1.5-0.2,2.2-0.6l0-0.1l0,0l0,0.1c0.7-0.4,1.2-0.9,1.6-1.6c0.4-0.7,0.6-1.5,0.6-2.3c0-0.9-0.2-1.6-0.6-2.3
		C274.8,45.5,274.2,44.9,273.6,44.6z M274.1,46.8L274.1,46.8L274.1,46.8L274.1,46.8L274.1,46.8c0.3,0.5,0.4,1.1,0.4,1.7
		c0,0.6-0.1,1.2-0.4,1.7l0.1,0c0,0,0,0,0,0l-0.1,0c-0.3,0.5-0.7,0.9-1.1,1.2c-0.5,0.3-1,0.4-1.6,0.4c-0.6,0-1.1-0.1-1.6-0.4
		c-0.5-0.3-0.9-0.7-1.1-1.2l0,0c-0.3-0.5-0.4-1.1-0.4-1.7c0-0.6,0.1-1.2,0.4-1.7l0,0c0.3-0.5,0.7-0.9,1.1-1.2l0-0.1c0,0,0,0,0,0l0,0
		l0,0l0,0c0.5-0.3,1-0.4,1.6-0.4c0.6,0,1.1,0.1,1.6,0.4l0,0l0-0.1l0,0c0,0,0,0,0,0l0,0l0,0.1C273.4,45.9,273.8,46.3,274.1,46.8z
		 M268.6,50.2L268.6,50.2C268.6,50.2,268.6,50.2,268.6,50.2L268.6,50.2z"/>
	<path class="st0" d="M331.7,46.7C331.7,46.7,331.7,46.7,331.7,46.7L331.7,46.7L331.7,46.7L331.7,46.7L331.7,46.7L331.7,46.7
		c0.3-0.5,0.7-0.9,1.2-1.2l0,0c0.5-0.3,1-0.4,1.6-0.4c0.5,0,0.9,0.1,1.3,0.3l0-0.1l0,0l0,0l0,0l0,0c0.4,0.2,0.7,0.4,0.9,0.7l0,0.1
		l0-0.1l0.7-0.8l0,0l0,0c-0.3-0.4-0.7-0.7-1.2-0.9l0,0c-0.5-0.2-1.1-0.4-1.8-0.4c-0.8,0-1.5,0.2-2.2,0.6c-0.7,0.4-1.2,0.9-1.6,1.6
		c-0.4,0.7-0.6,1.5-0.6,2.4c0,0.9,0.2,1.7,0.6,2.4c0.4,0.7,1,1.2,1.7,1.6v0l0,0l0,0l0,0c0.7,0.4,1.5,0.5,2.2,0.5
		c0.6,0,1.2-0.1,1.7-0.3l0-0.1c0,0,0,0,0,0l0,0.1l0,0l0-0.1c0,0,0,0,0,0l0,0.1c0.5-0.2,0.9-0.5,1.2-0.8l0,0l0,0l-0.7-0.8l0,0l0,0
		l0,0l0-0.1l0,0c-0.5,0.5-1.2,0.8-2.1,0.8c-0.6,0-1.1-0.1-1.7-0.4v0c-0.5-0.3-0.9-0.7-1.2-1.2c-0.3-0.5-0.5-1.1-0.5-1.7
		C331.3,47.9,331.5,47.3,331.7,46.7L331.7,46.7z M332.9,45.5L332.9,45.5C332.9,45.5,332.9,45.5,332.9,45.5L332.9,45.5L332.9,45.5z
		 M333,51.5C333,51.5,333,51.5,333,51.5L333,51.5L333,51.5z"/>
	<path class="st0" d="M292.4,44.9c-0.7-0.6-1.6-0.9-2.7-0.9c-0.6,0-1.2,0.1-1.8,0.3c-0.6,0.2-1.1,0.4-1.5,0.8l0,0l0,0l0.5,0.9l0.1,0
		l0,0l-0.1,0l0,0.1l0.1,0c0.3-0.3,0.7-0.5,1.2-0.6l0,0c0.5-0.2,0.9-0.2,1.4-0.2c0.5,0,0.9,0.1,1.3,0.3l0,0l0,0l0,0v0l0,0.1
		c0.4,0.2,0.7,0.4,0.9,0.8l0,0l0.1,0l0,0l-0.1,0c0.2,0.3,0.3,0.8,0.3,1.3v0.7c-0.3-0.1-0.5-0.2-0.8-0.3l0,0h0c0,0,0,0,0,0l0,0
		c-0.5-0.2-1.1-0.2-1.8-0.2c-0.6,0-1.2,0.1-1.8,0.3v0c0,0,0,0,0,0c0,0,0,0,0,0l0,0c-0.6,0.2-1,0.5-1.3,0.9c-0.3,0.4-0.5,0.9-0.5,1.5
		c0,0.6,0.2,1.1,0.5,1.5l0,0l0,0l0,0l0,0c0.3,0.4,0.7,0.7,1.2,1l0-0.1c0,0,0,0,0,0v0l0,0.1l0,0c0.5,0.2,1,0.3,1.6,0.3
		c0.6,0,1.1-0.1,1.6-0.3l0-0.1l0,0l0,0l0,0.1l0,0c0.5-0.2,0.8-0.5,1.1-0.8l0,0c0,0,0,0,0,0c0,0,0,0,0,0l0,0c0.1-0.2,0.2-0.3,0.3-0.5
		v1.4v0.1h0.1h1.1h0.1v-0.1v-5.4C293.4,46.3,293.1,45.5,292.4,44.9L292.4,44.9z M288.2,51.8C288.2,51.8,288.2,51.8,288.2,51.8
		L288.2,51.8L288.2,51.8L288.2,51.8C288.2,51.8,288.2,51.8,288.2,51.8z M288.3,51.7L288.3,51.7c-0.3-0.1-0.6-0.3-0.8-0.6
		c-0.2-0.2-0.3-0.5-0.3-0.8c0-0.5,0.2-0.9,0.7-1.2c0.5-0.3,1-0.4,1.7-0.4c0.6,0,1.2,0.1,1.7,0.2l0-0.1l0,0l0,0l0,0
		c0.3,0.1,0.6,0.2,0.9,0.4v0.5c0,0.4-0.1,0.7-0.4,1c-0.3,0.3-0.6,0.6-1.1,0.8c-0.4,0.2-0.9,0.3-1.3,0.3
		C289,51.9,288.6,51.8,288.3,51.7z M287.8,49.1L287.8,49.1L287.8,49.1L287.8,49.1z M287.4,51.2L287.4,51.2L287.4,51.2
		C287.4,51.2,287.4,51.2,287.4,51.2L287.4,51.2z M288.2,45.3C288.2,45.3,288.2,45.3,288.2,45.3L288.2,45.3L288.2,45.3z M291.3,47.9
		C291.3,47.9,291.3,47.9,291.3,47.9C291.3,47.9,291.3,47.9,291.3,47.9L291.3,47.9L291.3,47.9L291.3,47.9L291.3,47.9L291.3,47.9z
		 M287.8,48L287.8,48L287.8,48L287.8,48z M292.4,44.9L292.4,44.9L292.4,44.9L292.4,44.9z"/>
	<path class="st0" d="M360,42.6c0.4,0.2,0.8,0.3,1.2,0.3c0.5,0,0.9-0.1,1.2-0.3l0,0c0.4-0.2,0.7-0.5,0.9-0.8l0,0l0,0c0,0,0,0,0,0
		l0,0c0.2-0.4,0.3-0.8,0.3-1.2v-0.1h-0.1h-1h-0.1v0.1c0,0.4-0.1,0.7-0.4,1c-0.2,0.3-0.6,0.4-0.9,0.4c-0.4,0-0.7-0.1-0.9-0.4l0,0
		c-0.2-0.3-0.4-0.6-0.4-1v-0.1h-0.1h-1h-0.1v0.1c0,0.5,0.1,0.9,0.3,1.2C359.3,42.2,359.6,42.5,360,42.6z M362.2,41.6L362.2,41.6
		L362.2,41.6L362.2,41.6L362.2,41.6L362.2,41.6C362.2,41.6,362.2,41.6,362.2,41.6z M362.4,42.6L362.4,42.6L362.4,42.6L362.4,42.6z
		 M360.2,41.6C360.2,41.6,360.2,41.6,360.2,41.6L360.2,41.6L360.2,41.6z"/>
	<rect x="236.3" y="51" transform="matrix(0.7598 -0.6501 0.6501 0.7598 23.5535 165.8856)" class="st0" width="0.1" height="0.1"/>
	<path class="st0" d="M284.1,48.9c-0.3-0.3-0.7-0.5-1.1-0.6c0.3-0.1,0.6-0.3,0.8-0.6c0.3-0.3,0.4-0.8,0.4-1.3c0-0.7-0.3-1.3-0.8-1.7
		l0,0c-0.5-0.4-1.2-0.6-2.1-0.6h-3.7h-0.1v0.1v8.7v0.1h0.1h3.9c0.9,0,1.7-0.2,2.2-0.7c0.5-0.5,0.8-1.1,0.8-1.9
		C284.7,49.8,284.5,49.3,284.1,48.9L284.1,48.9z M282.6,45.6L282.6,45.6L282.6,45.6L282.6,45.6c0.3,0.2,0.4,0.5,0.4,1
		c0,0.4-0.1,0.7-0.4,0.9c-0.3,0.2-0.7,0.3-1.2,0.3h-2.4v-2.6h2.4C281.9,45.3,282.3,45.4,282.6,45.6L282.6,45.6z M282.6,47.5
		L282.6,47.5L282.6,47.5L282.6,47.5z M282.9,51.4c-0.3,0.2-0.7,0.4-1.3,0.4h-2.7V49h2.7c0.6,0,1,0.1,1.3,0.4l0,0l0,0l0,0v0
		c0.3,0.2,0.5,0.6,0.5,1C283.4,50.8,283.2,51.1,282.9,51.4L282.9,51.4L282.9,51.4L282.9,51.4L282.9,51.4L282.9,51.4z M283.5,44.8
		L283.5,44.8L283.5,44.8L283.5,44.8z M284.1,49L284.1,49L284.1,49L284.1,49z"/>
	<path class="st0" d="M363.8,44.1L363.8,44.1L363.8,44.1l-5.1,6.7v-6.7v-0.1h-0.1h-1.1h-0.1v0.1v8.7v0.1h0.1h1.1h0l0,0l0,0l0,0l0,0
		l5-6.7v6.7v0.1h0.1h1.1h0.1v-0.1v-8.7v-0.1h-0.1H363.8z M358.7,51L358.7,51L358.7,51L358.7,51L358.7,51z"/>
	<path class="st0" d="M353.9,44.1L353.9,44.1L353.9,44.1l-5.1,6.7v-6.7v-0.1h-0.1h-1.1h-0.1v0.1v8.7v0.1h0.1h1.1h0l0,0l5-6.7v6.7
		v0.1h0.1h1.1h0.1v-0.1v-8.7v-0.1h-0.1H353.9z M348.8,51L348.8,51L348.8,51L348.8,51L348.8,51z"/>
	<path class="st0" d="M460.6,44.5c-0.6-0.3-1.3-0.5-2-0.5c-0.8,0-1.5,0.2-2.1,0.6c-0.6,0.4-1.1,0.9-1.5,1.6
		c-0.3,0.7-0.5,1.4-0.5,2.3c0,1,0.2,1.8,0.6,2.5c0.4,0.7,1,1.2,1.7,1.6c0.7,0.4,1.4,0.5,2.2,0.5c0.7,0,1.3-0.1,1.9-0.4l0-0.1
		c0,0,0,0,0,0c0,0,0,0,0,0l0,0.1c0.6-0.3,1-0.6,1.4-1.1l0,0l0,0l0,0v0l0,0l-0.8-0.7l0,0l0,0l0,0l0,0l0,0.1c-0.3,0.3-0.6,0.6-1,0.8
		c-0.4,0.2-0.9,0.3-1.4,0.3c-0.6,0-1.1-0.1-1.6-0.4c-0.5-0.3-0.9-0.6-1.2-1.1c-0.3-0.4-0.4-0.9-0.4-1.5h6.6h0.1v-0.1v-0.6
		c0-0.8-0.2-1.5-0.5-2.2C461.6,45.3,461.1,44.8,460.6,44.5z M460.8,46.5L460.8,46.5L460.8,46.5L460.8,46.5
		C460.8,46.5,460.8,46.5,460.8,46.5L460.8,46.5c0.1,0.4,0.2,0.8,0.3,1.3h-5.3c0-0.4,0.1-0.8,0.4-1.2c0.2-0.4,0.5-0.7,0.9-1l0,0
		c0.4-0.3,0.9-0.4,1.4-0.4c0.5,0,1,0.1,1.4,0.3l0-0.1l0,0l0,0.1l0,0C460.3,45.7,460.6,46.1,460.8,46.5L460.8,46.5L460.8,46.5z
		 M457,45.5L457,45.5L457,45.5C457,45.5,457,45.5,457,45.5z M460.4,51.6C460.4,51.6,460.4,51.6,460.4,51.6
		C460.4,51.6,460.4,51.6,460.4,51.6L460.4,51.6L460.4,51.6L460.4,51.6z"/>
	<polygon class="st0" points="463.3,44.1 463.2,44.1 463.2,44.2 463.2,45.3 463.2,45.3 463.3,45.3 466.4,45.3 466.4,52.8 
		466.4,52.9 466.5,52.9 467.6,52.9 467.6,52.9 467.6,52.8 467.6,45.3 470.8,45.3 470.9,45.3 470.9,45.3 470.9,44.2 470.9,44.1 
		470.8,44.1 	"/>
	<path class="st0" d="M264.7,51.7v-7.5v-0.1h-0.1h-5.9h-0.1l0,0.1l-0.4,3.6c-0.1,1-0.3,1.9-0.5,2.5l0.1,0l0,0l-0.1,0v0
		c-0.2,0.6-0.4,1.1-0.7,1.4h-0.7h-0.1v0.1v3.3v0.1h0.1h1.1h0.1v-0.1v-2.2h7.1v2.2v0.1h0.1h1.1h0.1v-0.1v-3.3v-0.1h-0.1H264.7z
		 M259.7,45.3h3.7v6.4h-4.9c0.2-0.3,0.4-0.7,0.5-1.2c0.2-0.6,0.3-1.4,0.4-2.2L259.7,45.3z"/>
	<path class="st0" d="M313.9,44.1L313.9,44.1L313.9,44.1l-0.5,3.9v0l0.1,0h0l-0.1,0l0,0.2h0c-0.1,0.8-0.2,1.5-0.3,1.9
		c-0.1,0.5-0.3,0.9-0.5,1.2l0,0c-0.2,0.3-0.6,0.5-1,0.5h-0.1l0,0.1l0.1,0v0l-0.1,0l0.2,1.1l0,0.1h0.1c0.7,0,1.2-0.2,1.6-0.6l0,0
		c0.4-0.4,0.7-0.9,0.8-1.6c0.2-0.6,0.3-1.4,0.4-2.4l0.3-3.1h3.5v7.5v0.1h0.1h1.1h0.1v-0.1v-8.7v-0.1h-0.1H313.9z M313.5,48.3
		L313.5,48.3L313.5,48.3L313.5,48.3L313.5,48.3L313.5,48.3L313.5,48.3z"/>
	<path class="st0" d="M255.1,46C255.1,46,255.1,46,255.1,46L255.1,46c-0.3-0.7-0.7-1.2-1.3-1.5c-0.6-0.3-1.3-0.5-2-0.5
		c-0.8,0-1.5,0.2-2.1,0.6c-0.6,0.4-1.1,0.9-1.5,1.6c-0.3,0.7-0.5,1.4-0.5,2.3c0,1,0.2,1.8,0.6,2.5l0.1,0c0,0,0,0,0,0l-0.1,0l0,0
		l0.1,0l0,0l-0.1,0c0.4,0.7,1,1.2,1.7,1.6c0.7,0.4,1.4,0.5,2.2,0.5c0.7,0,1.3-0.1,1.9-0.4l0,0c0.6-0.3,1-0.6,1.4-1.1l-0.1,0l0,0l0,0
		l0,0l0,0l-0.8-0.7l0,0l0,0.1c-0.3,0.3-0.6,0.6-1,0.8c-0.4,0.2-0.9,0.3-1.4,0.3c-0.6,0-1.1-0.1-1.6-0.4c-0.5-0.3-0.9-0.6-1.2-1.1
		c-0.3-0.4-0.4-0.9-0.4-1.5h6.6h0.1v-0.1v-0.6C255.6,47.3,255.4,46.6,255.1,46L255.1,46z M250.3,45.5c0.4-0.3,0.9-0.4,1.4-0.4
		c0.5,0,1,0.1,1.4,0.3l0,0c0.4,0.2,0.7,0.6,0.9,1c0.2,0.4,0.3,0.8,0.3,1.3H249c0-0.4,0.1-0.8,0.4-1.2
		C249.6,46.1,249.9,45.8,250.3,45.5L250.3,45.5z M250.3,45.5L250.3,45.5L250.3,45.5L250.3,45.5z M253.6,51.6L253.6,51.6L253.6,51.6
		C253.6,51.6,253.6,51.6,253.6,51.6z"/>
	<path class="st0" d="M309,44.5c-0.6-0.3-1.3-0.5-2-0.5c-0.8,0-1.5,0.2-2.1,0.6c-0.6,0.4-1.1,0.9-1.5,1.6c-0.3,0.7-0.5,1.4-0.5,2.3
		c0,1,0.2,1.8,0.6,2.5v0l0,0l0,0l0,0c0.4,0.7,1,1.2,1.7,1.6c0.7,0.4,1.4,0.5,2.2,0.5c0.7,0,1.3-0.1,1.9-0.4l0,0
		c0.6-0.3,1-0.6,1.4-1.1l0,0l0,0l-0.8-0.7l0,0l0,0.1c-0.3,0.3-0.6,0.6-1,0.8c-0.4,0.2-0.9,0.3-1.4,0.3c-0.6,0-1.1-0.1-1.6-0.4
		c-0.5-0.3-0.9-0.6-1.2-1.1c-0.3-0.4-0.4-0.9-0.4-1.5h6.6h0.1v-0.1v-0.6c0-0.8-0.2-1.5-0.5-2.2C310,45.3,309.6,44.8,309,44.5z
		 M305.5,45.5L305.5,45.5L305.5,45.5L305.5,45.5z M305.5,45.5c0.4-0.3,0.9-0.4,1.4-0.4c0.5,0,1,0.1,1.4,0.3v0c0.4,0.2,0.7,0.6,0.9,1
		c0.2,0.4,0.3,0.8,0.3,1.3h-5.3c0-0.4,0.1-0.8,0.4-1.2C304.8,46.1,305.1,45.8,305.5,45.5L305.5,45.5z M308.8,51.6L308.8,51.6
		L308.8,51.6L308.8,51.6z"/>
	<path class="st0" d="M472.5,40L472.5,40L472.5,40L472.5,40L472.5,40L472.5,40l-0.9,0.6l-0.1,0l0,0c0.9,1,1.6,2.1,2.1,3.2
		c0.5,1.2,0.8,2.5,0.8,3.9c0,1.5-0.3,2.8-0.8,3.9c-0.5,1.2-1.2,2.2-2.1,3.2l0,0v0l0,0l0,0l0.1,0l0.8,0.6l0,0l0,0l0,0l0,0l0,0
		c0.9-0.9,1.6-2,2.3-3.4c0.6-1.4,1-2.9,1-4.5c0-1.6-0.3-3.1-1-4.5C474.1,42,473.4,40.8,472.5,40z"/>
	<path class="st0" d="M201.7,41.9c-0.4,0-0.7-0.1-0.9-0.4c-0.2-0.3-0.4-0.6-0.4-1v-0.1h-0.1h-1h-0.1v0.1c0,0.5,0.1,0.9,0.3,1.2
		c0.2,0.4,0.5,0.6,0.9,0.8c0.4,0.2,0.8,0.3,1.2,0.3c0.5,0,0.9-0.1,1.2-0.3l0,0c0.4-0.2,0.7-0.5,0.9-0.8l0,0c0.2-0.4,0.3-0.8,0.3-1.2
		v-0.1H204h-1H203v0.1c0,0.4-0.1,0.7-0.4,1l0,0C202.4,41.8,202,41.9,201.7,41.9z M203.7,41.8C203.7,41.8,203.7,41.8,203.7,41.8
		L203.7,41.8L203.7,41.8z M202.6,41.6C202.6,41.6,202.6,41.6,202.6,41.6L202.6,41.6L202.6,41.6z"/>
	<path class="st0" d="M231.2,46.7C231.2,46.7,231.2,46.7,231.2,46.7L231.2,46.7L231.2,46.7L231.2,46.7
		C231.2,46.7,231.2,46.7,231.2,46.7L231.2,46.7c0.3-0.5,0.7-0.9,1.2-1.2l0,0c0.5-0.3,1-0.4,1.6-0.4c0.5,0,0.9,0.1,1.3,0.3l0,0l0,0
		l0,0l0,0l0,0.1c0.4,0.2,0.7,0.4,0.9,0.7l0,0.1l0-0.1l0.7-0.8l0,0l0,0l0,0l0,0l0,0c-0.3-0.4-0.7-0.7-1.2-0.9l0,0
		c-0.5-0.2-1.1-0.4-1.8-0.4c-0.8,0-1.5,0.2-2.2,0.6c-0.7,0.4-1.2,0.9-1.7,1.6c-0.4,0.7-0.6,1.5-0.6,2.4c0,0.9,0.2,1.7,0.6,2.4l0,0
		l0,0l0,0l0,0l-0.1,0c0.4,0.7,1,1.2,1.7,1.6l0,0l0-0.1c0,0,0,0,0,0h0l0,0.1c0.7,0.4,1.5,0.5,2.2,0.5c0.6,0,1.2-0.1,1.7-0.3l0-0.1
		l0,0l0,0l0,0l0,0c0.5-0.2,0.9-0.5,1.2-0.8l0,0l0,0l-0.7-0.8l0,0l0,0c-0.5,0.5-1.2,0.8-2.1,0.8c-0.6,0-1.1-0.1-1.7-0.4l0,0
		c-0.5-0.3-0.9-0.7-1.2-1.2c-0.3-0.5-0.5-1.1-0.5-1.7C230.8,47.9,231,47.3,231.2,46.7L231.2,46.7z M232.4,45.5L232.4,45.5
		C232.4,45.5,232.4,45.5,232.4,45.5L232.4,45.5L232.4,45.5z M235.8,44.4L235.8,44.4L235.8,44.4L235.8,44.4z M232.5,51.5L232.5,51.5
		L232.5,51.5L232.5,51.5C232.5,51.5,232.5,51.5,232.5,51.5L232.5,51.5L232.5,51.5z"/>
	<path class="st0" d="M240,44.1L240,44.1L240,44.1l-0.5,3.9l0.1,0h0l-0.1,0v0l0,0.2l0,0c-0.1,0.8-0.2,1.5-0.3,1.9
		c-0.1,0.5-0.3,0.9-0.5,1.2l0,0l0,0l0,0l0,0l0,0c-0.2,0.3-0.6,0.5-1,0.5h-0.1l0,0.1l0.1,0v0l-0.1,0l0.2,1.1l0,0.1h0.1
		c0.7,0,1.2-0.2,1.6-0.6l0,0c0.4-0.4,0.7-0.9,0.8-1.6c0.2-0.6,0.3-1.4,0.4-2.4l0.3-3.1h3.5v7.5v0.1h0.1h1.1h0.1v-0.1v-8.7v-0.1h-0.1
		H240z M239.6,48.3L239.6,48.3L239.6,48.3L239.6,48.3z M239.4,52.4L239.4,52.4L239.4,52.4L239.4,52.4z"/>
	<polygon class="st0" points="294.6,44.1 294.5,44.1 294.5,44.2 294.5,45.3 294.5,45.3 294.6,45.3 297.7,45.3 297.7,52.8 
		297.7,52.9 297.8,52.9 298.9,52.9 299,52.9 299,52.8 299,45.3 302.1,45.3 302.2,45.3 302.2,45.3 302.2,44.2 302.2,44.1 302.1,44.1 
			"/>
	<path class="st0" d="M327.9,47.9c-0.6-0.5-1.4-0.7-2.4-0.7h-2.1v-3v-0.1h-0.1h-1.1h-0.1v0.1v8.7v0.1h0.1h3.3c1,0,1.8-0.3,2.4-0.8
		c0.6-0.5,0.9-1.2,0.9-2.1C328.8,49.1,328.5,48.4,327.9,47.9L327.9,47.9z M323.4,48.3h2c0.7,0,1.2,0.2,1.5,0.4v0l0,0l0,0l0,0
		c0.4,0.3,0.6,0.7,0.6,1.2c0,0.5-0.2,0.9-0.5,1.2c-0.3,0.3-0.9,0.5-1.5,0.5h-2V48.3z"/>
	<polygon class="st0" points="274.1,50.2 274.1,50.2 274.1,50.2 	"/>
	<path class="st0" d="M173.8,47.9c-0.6-0.5-1.4-0.7-2.4-0.7h-2.1v-3v-0.1h-0.1h-1.1h-0.1v0.1v8.7v0.1h0.1h3.3c1,0,1.8-0.3,2.4-0.8
		c0.6-0.5,0.9-1.2,0.9-2.1C174.7,49.1,174.4,48.4,173.8,47.9L173.8,47.9z M172.8,51.2c-0.3,0.3-0.9,0.5-1.5,0.5h-2v-3.4h2
		c0.7,0,1.2,0.2,1.5,0.4l0,0c0.4,0.3,0.6,0.7,0.6,1.2C173.4,50.5,173.2,50.9,172.8,51.2L172.8,51.2z M173.7,47.9L173.7,47.9
		L173.7,47.9L173.7,47.9z"/>
	<path class="st0" d="M135.5,44.6L135.5,44.6c-0.7-0.4-1.4-0.6-2.2-0.6c-0.8,0-1.5,0.2-2.2,0.6c-0.7,0.4-1.2,0.9-1.6,1.6v0
		c-0.4,0.7-0.6,1.5-0.6,2.3c0,0.9,0.2,1.6,0.6,2.3v0c0.4,0.7,0.9,1.2,1.6,1.6c0.7,0.4,1.4,0.6,2.2,0.6c0.8,0,1.5-0.2,2.2-0.6l0,0
		c0.7-0.4,1.2-0.9,1.6-1.6c0.4-0.7,0.6-1.5,0.6-2.3c0-0.9-0.2-1.6-0.6-2.3C136.7,45.5,136.1,44.9,135.5,44.6z M133.3,51.8
		c-0.6,0-1.1-0.1-1.6-0.4c-0.5-0.3-0.9-0.7-1.1-1.2c-0.3-0.5-0.4-1.1-0.4-1.7c0-0.6,0.1-1.2,0.4-1.7l0,0c0.3-0.5,0.7-0.9,1.1-1.2v0
		c0.5-0.3,1-0.4,1.6-0.4c0.6,0,1.1,0.1,1.6,0.4l0,0c0.5,0.3,0.9,0.7,1.1,1.2v0c0.3,0.5,0.4,1.1,0.4,1.7c0,0.6-0.1,1.2-0.4,1.7
		c-0.3,0.5-0.7,0.9-1.1,1.2C134.4,51.7,133.8,51.8,133.3,51.8z M130.5,50.2L130.5,50.2L130.5,50.2C130.5,50.2,130.5,50.2,130.5,50.2
		L130.5,50.2z M135.4,44.6L135.4,44.6L135.4,44.6L135.4,44.6z"/>
	<path class="st0" d="M406.3,48.9c-0.3-0.3-0.7-0.5-1.1-0.6c0.3-0.1,0.6-0.3,0.8-0.6c0.3-0.3,0.4-0.8,0.4-1.3c0-0.7-0.3-1.3-0.8-1.7
		l0,0c0,0,0,0,0,0c0,0,0,0,0,0l0,0c-0.5-0.4-1.2-0.6-2.1-0.6h-3.7h-0.1v0.1v8.7v0.1h0.1h3.9c0.9,0,1.7-0.2,2.2-0.7
		c0.5-0.5,0.8-1.1,0.8-1.9C406.8,49.8,406.6,49.3,406.3,48.9L406.3,48.9z M404.7,45.6c0.3,0.2,0.4,0.5,0.4,1c0,0.4-0.1,0.7-0.4,0.9
		c-0.3,0.2-0.7,0.3-1.2,0.3h-2.4v-2.6h2.4C404,45.3,404.4,45.4,404.7,45.6L404.7,45.6L404.7,45.6L404.7,45.6L404.7,45.6z
		 M405.1,51.4L405.1,51.4L405.1,51.4c-0.3,0.2-0.8,0.3-1.3,0.3h-2.7V49h2.7c0.6,0,1,0.1,1.3,0.4l0,0l0,0l0,0l0,0c0,0,0,0,0,0l0,0
		c0.3,0.2,0.5,0.6,0.5,1C405.5,50.8,405.4,51.1,405.1,51.4L405.1,51.4C405.1,51.4,405.1,51.4,405.1,51.4L405.1,51.4z"/>
	<polygon class="st0" points="182.6,44.1 182.5,44.1 182.5,44.2 182.5,47.8 177.7,47.8 177.7,44.2 177.7,44.1 177.6,44.1 
		176.5,44.1 176.4,44.1 176.4,44.2 176.4,52.8 176.4,52.9 176.5,52.9 177.6,52.9 177.7,52.9 177.7,52.8 177.7,49 182.5,49 
		182.5,52.8 182.5,52.9 182.6,52.9 183.7,52.9 183.7,52.9 183.7,52.8 183.7,44.2 183.7,44.1 183.7,44.1 	"/>
	<path class="st0" d="M125.8,44.1L125.8,44.1L125.8,44.1l-5.1,6.7v-6.7v-0.1h-0.1h-1.1h-0.1v0.1v8.7v0.1h0.1h1.1h0l0,0l0,0l0,0l0,0
		l5-6.7v6.7v0.1h0.1h1.1h0.1v-0.1v-8.7v-0.1h-0.1H125.8z M120.7,51L120.7,51L120.7,51L120.7,51L120.7,51z"/>
	<path class="st0" d="M191.9,47.9c-0.6-0.5-1.4-0.7-2.4-0.7h-2.1v-3v-0.1h-0.1h-1.1h-0.1v0.1v8.7v0.1h0.1h3.3c1,0,1.8-0.3,2.4-0.8
		c0.6-0.5,0.9-1.2,0.9-2.1C192.8,49.1,192.5,48.4,191.9,47.9L191.9,47.9z M187.5,48.3h2c0.7,0,1.2,0.2,1.5,0.4v0l0,0l0,0l0,0
		c0.4,0.3,0.6,0.7,0.6,1.2c0,0.5-0.2,0.9-0.5,1.2c-0.3,0.3-0.9,0.5-1.5,0.5h-2V48.3z"/>
	<rect x="434.6" y="51" transform="matrix(0.7598 -0.6501 0.6501 0.7598 71.1921 294.8436)" class="st0" width="0.1" height="0.1"/>
	<path class="st0" d="M159.8,44.1L159.8,44.1L159.8,44.1l-0.5,3.9v0l0.1,0l0,0l-0.1,0l0,0.2l0,0c-0.1,0.8-0.2,1.5-0.3,1.9
		c-0.1,0.5-0.3,0.9-0.5,1.2v0l0,0l0,0l0,0c-0.2,0.3-0.6,0.5-1,0.5h-0.1l0,0.1l0.2,1.1l0.1,0l0,0l-0.1,0l0,0.1h0.1
		c0.7,0,1.2-0.2,1.6-0.6l0,0c0.4-0.4,0.7-0.9,0.8-1.6c0.2-0.6,0.3-1.4,0.4-2.4l0.3-3.1h3.5v7.5v0.1h0.1h1.1h0.1v-0.1v-8.7v-0.1h-0.1
		H159.8z"/>
	<polygon class="st0" points="420.8,44.3 420.8,44.3 420.8,44.4 	"/>
	<path class="st0" d="M88.7,40.7L88.7,40.7L88.7,40.7L88.7,40.7L88.7,40.7L88.7,40.7L87.8,40l0,0l0,0l0,0l0,0l0,0
		c-0.9,0.9-1.6,2-2.3,3.4c-0.6,1.4-0.9,2.9-0.9,4.5c0,1.6,0.3,3.1,0.9,4.5c0.6,1.4,1.4,2.5,2.3,3.4l0,0l0,0l0,0l0,0l0,0l0.8-0.6
		l0.1,0l0,0l0,0l0,0l0,0c-0.9-1-1.6-2.1-2.1-3.2c-0.5-1.2-0.8-2.5-0.8-3.9c0-1.5,0.3-2.8,0.8-3.9C87.1,42.7,87.8,41.7,88.7,40.7z"/>
	<path class="st0" d="M415.6,46C415.6,46,415.6,46,415.6,46L415.6,46c-0.3-0.7-0.7-1.2-1.3-1.5c-0.6-0.3-1.3-0.5-2-0.5
		c-0.8,0-1.5,0.2-2.1,0.6c-0.6,0.4-1.1,0.9-1.5,1.6c-0.3,0.7-0.5,1.4-0.5,2.3c0,1,0.2,1.8,0.6,2.5v0l0.1,0l0,0l0,0l-0.1,0
		c0.4,0.7,1,1.2,1.7,1.6c0.7,0.4,1.4,0.5,2.2,0.5c0.7,0,1.3-0.1,1.9-0.4l0,0c0.6-0.3,1-0.6,1.4-1.1l0,0l0,0l-0.8-0.7l0,0l0,0.1
		c-0.3,0.3-0.6,0.6-1,0.8c-0.4,0.2-0.9,0.3-1.4,0.3c-0.6,0-1.1-0.1-1.6-0.4c-0.5-0.3-0.9-0.6-1.2-1.1c-0.3-0.4-0.4-0.9-0.4-1.5h6.6
		h0.1v-0.1v-0.6C416.2,47.3,416,46.6,415.6,46L415.6,46z M410.8,45.5c0.4-0.3,0.9-0.4,1.4-0.4c0.5,0,1,0.1,1.4,0.3l0,0
		c0.4,0.2,0.7,0.6,0.9,1c0.2,0.4,0.3,0.8,0.3,1.3h-5.3c0-0.4,0.1-0.8,0.4-1.2C410.1,46.1,410.4,45.8,410.8,45.5L410.8,45.5z
		 M414.2,51.6L414.2,51.6L414.2,51.6L414.2,51.6z"/>
	<path class="st0" d="M425.8,46.1L425.8,46.1c-0.4-0.7-0.9-1.2-1.5-1.6l0,0c-0.6-0.4-1.2-0.6-1.9-0.6c-0.6,0-1.2,0.1-1.7,0.4l0,0.1
		h0l0-0.1c-0.5,0.3-0.9,0.6-1.1,1l0,0c-0.1,0.2-0.2,0.3-0.3,0.5v-1.6v-0.1h-0.1h-1.1h-0.1v0.1v12.3v0.1h0.1h1.1h0.1v-0.1v-5.2
		c0.1,0.2,0.1,0.3,0.3,0.5v0c0.3,0.4,0.6,0.7,1.1,0.9l0-0.1l0,0l0,0.1l0,0l0-0.1h0l0,0.1c0.5,0.3,1.1,0.4,1.7,0.4
		c0.7,0,1.3-0.2,1.9-0.5c0.6-0.4,1.1-0.9,1.5-1.6l0,0c0.4-0.7,0.6-1.5,0.6-2.4C426.4,47.6,426.2,46.8,425.8,46.1z M425.1,48.5
		c0,0.7-0.1,1.3-0.4,1.8c-0.3,0.5-0.6,0.9-1.1,1.1l0,0c-0.4,0.3-0.9,0.4-1.4,0.4c-0.5,0-0.9-0.1-1.4-0.3c-0.4-0.2-0.8-0.6-1-1l0,0
		c-0.3-0.4-0.4-0.8-0.4-1.3v-1.5c0-0.5,0.1-0.9,0.4-1.3l0,0c0.3-0.4,0.6-0.7,1-1l0-0.1c0,0,0,0,0,0l0,0l0,0l0,0
		c0.4-0.2,0.9-0.4,1.4-0.4c0.5,0,1,0.1,1.4,0.4c0.4,0.3,0.8,0.6,1.1,1.1l0,0l0,0l0,0v0l-0.1,0C425,47.2,425.1,47.8,425.1,48.5z
		 M419.7,46.4L419.7,46.4L419.7,46.4L419.7,46.4z M425.8,46.1L425.8,46.1L425.8,46.1L425.8,46.1z M419.7,45.3
		C419.7,45.3,419.7,45.3,419.7,45.3L419.7,45.3L419.7,45.3z M425.8,50.9L425.8,50.9L425.8,50.9L425.8,50.9z"/>
	<polygon class="st0" points="145.7,44.1 145.7,44.1 145.7,44.2 145.7,47.8 140.8,47.8 140.8,44.2 140.8,44.1 140.8,44.1 
		139.7,44.1 139.6,44.1 139.6,44.2 139.6,52.8 139.6,52.9 139.7,52.9 140.8,52.9 140.8,52.9 140.8,52.8 140.8,49 145.7,49 
		145.7,52.8 145.7,52.9 145.7,52.9 146.8,52.9 146.9,52.9 146.9,52.8 146.9,44.2 146.9,44.1 146.8,44.1 	"/>
	<polygon class="st0" points="116.7,51.7 116.7,44.2 116.7,44.1 116.6,44.1 115.5,44.1 115.4,44.1 115.4,44.2 115.4,51.7 
		110.6,51.7 110.6,44.2 110.6,44.1 110.6,44.1 109.4,44.1 109.4,44.1 109.4,44.2 109.4,52.8 109.4,52.9 109.4,52.9 116.7,52.9 
		116.7,55.1 116.7,55.2 116.7,55.2 117.8,55.2 117.9,55.2 117.9,55.1 117.9,51.8 117.9,51.7 117.8,51.7 	"/>
	<path class="st0" d="M155.2,44.9c-0.7-0.6-1.6-0.9-2.7-0.9c-0.6,0-1.2,0.1-1.8,0.3c-0.6,0.2-1.1,0.4-1.5,0.8l0,0l0,0l0.1,0l0,0
		l-0.1,0l0.5,0.9l0.1,0l0,0l-0.1,0l0,0.1l0.1,0c0.3-0.3,0.7-0.5,1.2-0.6v0c0.5-0.2,0.9-0.2,1.4-0.2c0.5,0,0.9,0.1,1.3,0.3l0,0l0,0
		l0,0h0l0,0.1c0.4,0.2,0.7,0.4,0.9,0.8l0.1,0l0,0l-0.1,0v0l0.1,0l0,0l-0.1,0c0.2,0.3,0.3,0.8,0.3,1.3v0.7c-0.3-0.1-0.5-0.2-0.8-0.3
		l0,0c-0.5-0.2-1.1-0.2-1.8-0.2c-0.6,0-1.2,0.1-1.8,0.3v0c0,0,0,0,0,0c0,0,0,0,0,0l0,0c-0.6,0.2-1,0.5-1.3,0.9
		c-0.3,0.4-0.5,0.9-0.5,1.5c0,0.6,0.2,1.1,0.5,1.5v0c0.3,0.4,0.7,0.7,1.2,1l0,0c0.5,0.2,1,0.3,1.6,0.3c0.6,0,1.1-0.1,1.6-0.3l0-0.1
		c0,0,0,0,0,0l0,0l0,0.1l0,0c0.5-0.2,0.8-0.5,1.1-0.8l0,0c0.1-0.2,0.2-0.3,0.3-0.5v1.4v0.1h0.1h1.1h0.1v-0.1v-5.4
		C156.2,46.3,155.9,45.5,155.2,44.9L155.2,44.9z M154.1,48.9L154.1,48.9c0.3,0.1,0.6,0.3,0.9,0.4v0.5c0,0.4-0.1,0.7-0.4,1
		c-0.3,0.3-0.6,0.6-1.1,0.8c-0.4,0.2-0.9,0.3-1.3,0.3c-0.4,0-0.8-0.1-1.1-0.2c-0.3-0.1-0.6-0.3-0.8-0.6c-0.2-0.2-0.3-0.5-0.3-0.8
		c0-0.5,0.2-0.9,0.6-1.2c0.5-0.3,1-0.4,1.7-0.4C153,48.7,153.5,48.8,154.1,48.9L154.1,48.9L154.1,48.9L154.1,48.9L154.1,48.9z
		 M150.2,51.2L150.2,51.2L150.2,51.2L150.2,51.2z M151,51.8L151,51.8L151,51.8L151,51.8z M150.6,48L150.6,48L150.6,48L150.6,48z
		 M154.6,51.9C154.6,51.9,154.6,51.9,154.6,51.9L154.6,51.9L154.6,51.9z"/>
	<polygon class="st0" points="377.3,44.1 377.3,44.1 377.3,44.1 377.3,44.2 377.3,44.2 377.3,44.1 374.5,51.1 371.6,44.1 
		371.6,44.1 371.6,44.1 370.3,44.1 370.2,44.1 370.3,44.2 373.8,52.7 372.2,56.5 372.3,56.5 372.3,56.5 372.2,56.5 372.2,56.6 
		372.3,56.6 373.5,56.6 373.5,56.6 373.5,56.5 373.5,56.5 373.5,56.5 373.5,56.5 378.7,44.2 378.7,44.1 378.6,44.1 	"/>
	<polygon class="st0" points="386.3,44.1 386.2,44.1 386.2,44.2 386.2,47.8 381.4,47.8 381.4,44.2 381.4,44.1 381.3,44.1 
		380.2,44.1 380.1,44.1 380.1,44.2 380.1,52.8 380.1,52.9 380.2,52.9 381.3,52.9 381.4,52.9 381.4,52.8 381.4,49 386.2,49 
		386.2,52.8 386.2,52.9 386.3,52.9 387.4,52.9 387.4,52.9 387.4,52.8 387.4,44.2 387.4,44.1 387.4,44.1 	"/>
	<path class="st0" d="M396.2,44.1L396.2,44.1L396.2,44.1l-5.1,6.7v-6.7v-0.1h-0.1H390h-0.1v0.1v8.7v0.1h0.1h1.1h0l0,0l5-6.7v6.7v0.1
		h0.1h1.1h0.1v-0.1v-8.7v-0.1h-0.1H396.2z M391.1,51L391.1,51L391.1,51L391.1,51L391.1,51z"/>
	<polygon class="st0" points="96.5,44.1 96.5,44.1 96.5,44.2 96.5,47.8 91.6,47.8 91.6,44.2 91.6,44.1 91.6,44.1 90.4,44.1 
		90.4,44.1 90.4,44.2 90.4,52.8 90.4,52.9 90.4,52.9 91.6,52.9 91.6,52.9 91.6,52.8 91.6,49 96.5,49 96.5,52.8 96.5,52.9 96.5,52.9 
		97.6,52.9 97.7,52.9 97.7,52.8 97.7,44.2 97.7,44.1 97.6,44.1 	"/>
	<polygon class="st0" points="446.2,44.1 446.1,44.1 446.1,44.2 446.1,45.3 446.1,45.3 446.2,45.3 449.3,45.3 449.3,52.8 
		449.3,52.9 449.4,52.9 450.5,52.9 450.5,52.9 450.5,52.8 450.5,45.3 453.7,45.3 453.8,45.3 453.8,45.3 453.8,44.2 453.8,44.1 
		453.7,44.1 	"/>
	<path class="st0" d="M224,45.6L224,45.6C223.9,45.5,223.9,45.5,224,45.6L224,45.6c0.5-0.3,1-0.4,1.6-0.4c0.5,0,0.9,0.1,1.3,0.3l0,0
		l0,0l0,0l0,0c0.4,0.2,0.7,0.4,0.9,0.7l0,0.1l0-0.1l0,0l0,0l0,0l0.7-0.8l0,0l0,0c-0.3-0.4-0.7-0.7-1.2-0.9l0,0.1c0,0,0,0,0,0l0,0
		l0,0c0,0,0,0,0,0l0-0.1c-0.5-0.2-1.1-0.4-1.8-0.4c-0.8,0-1.5,0.2-2.2,0.6c-0.7,0.4-1.2,0.9-1.7,1.6c-0.4,0.7-0.6,1.5-0.6,2.4
		c0,0.9,0.2,1.7,0.6,2.4c0.4,0.7,1,1.2,1.7,1.6l0,0l0,0l0,0c0,0,0,0,0,0l0,0.1c0.7,0.4,1.5,0.5,2.2,0.5c0.6,0,1.2-0.1,1.7-0.3l0,0
		l0-0.1l0,0l0,0.1c0.5-0.2,0.9-0.5,1.2-0.8l0,0l0,0l0,0l0,0l0,0l-0.7-0.8l0,0l0,0l0,0l0-0.1l0,0c-0.5,0.5-1.2,0.8-2.1,0.8
		c-0.6,0-1.1-0.1-1.7-0.4l0,0c-0.5-0.3-0.9-0.7-1.2-1.2c-0.3-0.5-0.5-1.1-0.5-1.7c0-0.7,0.1-1.2,0.4-1.7
		C223.1,46.3,223.5,45.9,224,45.6z"/>
	<path class="st0" d="M204.3,44.1L204.3,44.1L204.3,44.1L204.3,44.1L204.3,44.1L204.3,44.1l-5.1,6.7v-6.7v-0.1h-0.1H198H198v0.1v8.7
		v0.1h0.1h1.1h0l0,0l5-6.7v6.7v0.1h0.1h1.1h0.1v-0.1v-8.7v-0.1h-0.1H204.3z M199.1,51L199.1,51L199.1,51L199.1,51L199.1,51z"/>
	<path class="st0" d="M106,44.9L106,44.9C106,44.9,106,44.9,106,44.9L106,44.9L106,44.9L106,44.9L106,44.9c-0.6-0.7-1.5-1-2.7-1
		c-0.6,0-1.2,0.1-1.8,0.3c-0.6,0.2-1.1,0.4-1.5,0.8l0,0l0,0l0.1,0l0,0l-0.1,0l0.5,0.9l0,0.1l0.1,0c0.3-0.3,0.7-0.5,1.2-0.6
		c0.5-0.2,0.9-0.2,1.4-0.2c0.5,0,0.9,0.1,1.3,0.3l0,0l0,0l0,0h0l0,0.1c0.4,0.2,0.7,0.4,0.9,0.8v0l0,0l0,0l0,0
		c0.2,0.3,0.3,0.8,0.3,1.3v0.7c-0.3-0.1-0.5-0.2-0.8-0.3l0,0c-0.5-0.2-1.1-0.2-1.8-0.2c-0.6,0-1.2,0.1-1.8,0.3l0,0c0,0,0,0,0,0
		s0,0,0,0l0,0c-0.6,0.2-1,0.5-1.3,0.9c-0.3,0.4-0.5,0.9-0.5,1.5c0,0.6,0.1,1.1,0.5,1.5l0,0c0.3,0.4,0.7,0.7,1.2,1l0-0.1l0,0l0,0.1
		l0,0c0.5,0.2,1,0.3,1.6,0.3s1.1-0.1,1.6-0.3l0,0c0.5-0.2,0.8-0.5,1.1-0.8l0,0c0.1-0.2,0.2-0.3,0.3-0.5v1.4v0.1h0.1h1.1h0.1v-0.1
		v-5.4C107,46.3,106.7,45.5,106,44.9L106,44.9z M101.8,51.8C101.8,51.8,101.8,51.8,101.8,51.8L101.8,51.8L101.8,51.8L101.8,51.8
		C101.8,51.8,101.8,51.8,101.8,51.8z M104.9,48.9L104.9,48.9L104.9,48.9L104.9,48.9c0.3,0.1,0.6,0.3,0.9,0.4v0.5
		c0,0.4-0.1,0.7-0.4,1c-0.3,0.3-0.6,0.6-1.1,0.8c-0.4,0.2-0.9,0.3-1.3,0.3c-0.4,0-0.8-0.1-1.1-0.2l0,0c-0.3-0.1-0.6-0.3-0.8-0.6
		c-0.2-0.2-0.3-0.5-0.3-0.8c0-0.5,0.2-0.9,0.7-1.2c0.5-0.3,1-0.4,1.7-0.4C103.8,48.7,104.3,48.8,104.9,48.9L104.9,48.9L104.9,48.9z
		 M101,51.2L101,51.2C101,51.2,101,51.2,101,51.2L101,51.2z M104.9,47.9L104.9,47.9L104.9,47.9L104.9,47.9z M101.4,48L101.4,48
		L101.4,48L101.4,48z"/>
	<polygon class="st0" points="194.3,44.1 194.2,44.1 194.2,44.2 194.2,52.8 194.2,52.9 194.3,52.9 195.4,52.9 195.5,52.9 
		195.5,52.8 195.5,44.2 195.5,44.1 195.4,44.1 	"/>
	<path class="st0" d="M433.7,45.5L433.7,45.5L433.7,45.5C433.7,45.4,433.7,45.4,433.7,45.5C433.7,45.4,433.7,45.4,433.7,45.5
		L433.7,45.5c0.4,0.2,0.7,0.4,0.9,0.7l0,0.1l0-0.1l0.7-0.8l0,0l0,0l0,0l0,0l0,0c-0.3-0.4-0.7-0.7-1.2-0.9l0,0
		c-0.5-0.2-1.1-0.4-1.8-0.4c-0.8,0-1.5,0.2-2.2,0.6c-0.7,0.4-1.2,0.9-1.7,1.6c-0.4,0.7-0.6,1.5-0.6,2.4c0,0.9,0.2,1.7,0.6,2.4l0.1,0
		c0,0,0,0,0,0l-0.1,0l0,0l0.1,0h0l-0.1,0c0.4,0.7,1,1.2,1.7,1.6l0-0.1h0l0,0l0,0l0,0c0.7,0.4,1.5,0.5,2.2,0.5c0.6,0,1.2-0.1,1.7-0.3
		v0c0.5-0.2,0.9-0.5,1.2-0.8l0,0l0,0l0,0v0l0,0l-0.7-0.8l0,0l0,0c-0.5,0.5-1.2,0.8-2.1,0.8c-0.6,0-1.1-0.1-1.6-0.4
		c-0.5-0.3-0.9-0.7-1.2-1.2c-0.3-0.5-0.5-1.1-0.5-1.7c0-0.7,0.1-1.2,0.4-1.7l-0.1,0v0l0,0l0,0v0c0.3-0.5,0.7-0.9,1.2-1.2l0,0
		c0.5-0.3,1-0.4,1.6-0.4C432.9,45.2,433.3,45.3,433.7,45.5z"/>
	<path class="st0" d="M218.1,44.1L218.1,44.1L218.1,44.1l-5.1,6.7v-6.7v-0.1h-0.1h-1.1h-0.1v0.1v8.7v0.1h0.1h1.1h0l0,0l5-6.7v6.7
		v0.1h0.1h1.1h0.1v-0.1v-8.7v-0.1h-0.1H218.1z M212.9,51L212.9,51L212.9,51L212.9,51L212.9,51z"/>
	<path class="st0" d="M443.4,44.1L443.4,44.1L443.4,44.1l-5.1,6.7v-6.7v-0.1h-0.1h-1.1h-0.1v0.1v8.7v0.1h0.1h1.1h0l0,0l5-6.7v6.7
		v0.1h0.1h1.1h0.1v-0.1v-8.7v-0.1h-0.1H443.4z M438.3,51L438.3,51L438.3,51L438.3,51L438.3,51z"/>
</g>
</svg>
